<svg xmlns="http://www.w3.org/2000/svg" width="50" height="50" viewBox="0 0 50 50">
  <path fill="#FFF" d="M308.672014,55.1244665 C305.126595,52.6713637 298.875737,48.2190585 298.875737,48.2190585 C298.875737,48.2190585 295.585812,51.2365621 293.45786,53.1881643 C293.081619,53.5332647 292.542631,53.6675647 292.038643,53.5400647 C291.532904,53.4108645 291.149663,53.0368641 290.983417,52.5608635 C289.658697,48.7698591 287.117755,41.3153507 287.117755,41.3153507 C287.117755,41.3153507 281.680628,39.6408487 277.538473,38.4372473 C276.938236,38.2621471 276.521746,37.7402465 276.500746,37.1384459 C276.481497,36.5383451 276.862988,35.9909445 277.449225,35.7801443 C286.685514,32.4600404 309.28275,24.223531 316.620333,21.585128 C317.096322,21.4134278 317.63006,21.5052279 318.015051,21.8231282 C318.400043,22.1410286 318.575039,22.6357292 318.470041,23.1117297 C317.085823,29.427237 313.396906,47.0001571 311.876191,53.9429651 C311.732694,54.5940659 311.256705,55.1312665 310.60922,55.3709667 C309.961735,55.6089671 309.235501,55.5120669 308.672014,55.1244665 Z M289.50005,40.2547265 L292.496115,49.4998759 L293.161709,43.6452824 C293.161709,43.6452824 304.737333,33.8776101 311.336171,28.3101538 C311.52889,28.1465524 311.555656,27.8727704 311.395057,27.6807892 C311.236242,27.4888079 310.943595,27.4437341 310.72411,27.5739474 C303.076025,32.1431013 289.50005,40.2547265 289.50005,40.2547265 Z" transform="translate(-273 -13)"/>
</svg>
