<svg xmlns="http://www.w3.org/2000/svg" width="50" height="50" viewBox="0 0 50 50">
  <path fill="#FFF" d="M244.452075,49.8996876 C244.452075,49.8996876 245.354465,49.8153274 245.816665,49.397641 C246.239737,49.0149334 246.225064,48.2927268 246.225064,48.2927268 C246.225064,48.2927268 246.168817,44.9203726 248.029844,44.4224412 C249.863971,43.9327398 252.218989,47.6836868 254.718292,49.126042 C256.606219,50.2165532 258.039283,49.9778752 258.039283,49.9778752 L264.717949,49.8996876 C264.717949,49.8996876 268.210126,49.7186216 266.554521,47.4079726 C266.417573,47.2186762 265.588548,45.6981334 261.590152,42.5747448 C257.401007,39.305269 257.963473,39.834064 263.006098,34.177809 C266.077648,30.7334399 267.30529,28.6306051 266.921346,27.7314478 C266.556966,26.8713843 264.297323,27.0997744 264.297323,27.0997744 L256.77985,27.1388682 C256.77985,27.1388682 256.222276,27.0750836 255.808986,27.282898 C255.405478,27.4865972 255.143809,27.9618955 255.143809,27.9618955 C255.143809,27.9618955 253.955295,30.6264463 252.368165,32.8938865 C249.020272,37.675675 247.682583,37.9287558 247.134791,37.632466 C245.860684,36.9390656 246.178599,34.8506338 246.178599,33.3671272 C246.178599,28.731426 247.014961,26.7993694 244.552341,26.2993804 C243.735543,26.1327173 243.13395,26.0236662 241.043045,26.0051481 C238.36033,25.9825149 236.090904,26.0133784 234.80457,26.5421734 C233.948644,26.8940176 233.288359,27.6800086 233.691867,27.7252751 C234.188304,27.7808295 235.313235,27.9804136 235.909937,28.6635262 C236.68027,29.546223 236.65337,31.5256036 236.65337,31.5256036 C236.65337,31.5256036 237.096005,36.9822744 235.618922,37.6592144 C234.606484,38.1242248 233.217439,37.1756858 230.231482,32.8362746 C228.703043,30.6141009 227.548766,28.1573644 227.548766,28.1573644 C227.548766,28.1573644 227.326225,27.6985267 226.927609,27.4516186 C226.445845,27.1532712 225.773332,27.0606806 225.773332,27.0606806 L218.630021,27.0997744 C218.630021,27.0997744 217.556445,27.1244652 217.16272,27.5174607 C216.813013,27.8651898 217.135819,28.5873962 217.135819,28.5873962 C217.135819,28.5873962 222.728682,39.5974436 229.062532,45.1467052 C234.870599,50.2330138 241.463672,49.8996876 241.463672,49.8996876 L244.452075,49.8996876 Z" transform="translate(-217 -13)"/>
</svg>
