<svg xmlns="http://www.w3.org/2000/svg" width="46" height="46" viewBox="0 0 46 46">
  <path fill="#FFF" d="M399.10005,18.4998759 L421.90005,18.4998759 C426.097414,18.4998759 429.50005,21.9025118 429.50005,26.0998759 L429.50005,48.8998759 C429.50005,53.09724 426.097414,56.4998759 421.90005,56.4998759 L399.10005,56.4998759 C394.902686,56.4998759 391.50005,53.09724 391.50005,48.8998759 L391.50005,26.0998759 C391.50005,21.9025118 394.902686,18.4998759 399.10005,18.4998759 Z M411.00005,47.4998759 C416.79904,47.4998759 421.50005,42.7988657 421.50005,36.9998759 C421.50005,31.200886 416.79904,26.4998759 411.00005,26.4998759 C405.20106,26.4998759 400.50005,31.200886 400.50005,36.9998759 C400.50005,42.7988657 405.20106,47.4998759 411.00005,47.4998759 Z M411.00005,43.4998759 C407.410199,43.4998759 404.50005,40.5897267 404.50005,36.9998759 C404.50005,33.4100251 407.410199,30.4998759 411.00005,30.4998759 C414.589901,30.4998759 417.50005,33.4100251 417.50005,36.9998759 C417.50005,40.5897267 414.589901,43.4998759 411.00005,43.4998759 Z M423.50005,26.4998759 C424.604619,26.4998759 425.50005,25.6044454 425.50005,24.4998759 C425.50005,23.3953064 424.604619,22.4998759 423.50005,22.4998759 C422.395481,22.4998759 421.50005,23.3953064 421.50005,24.4998759 C421.50005,25.6044454 422.395481,26.4998759 423.50005,26.4998759 Z" transform="translate(-387 -15)"/>
</svg>
