<svg xmlns="http://www.w3.org/2000/svg" width="46" height="46" viewBox="0 0 46 46">
  <path fill="#FFF" d="M342.6,19 L365.4,19 C369.597364,19 373,22.4026359 373,26.6 L373,49.4 C373,53.5973641 369.597364,57 365.4,57 L342.6,57 C338.402636,57 335,53.5973641 335,49.4 L335,26.6 C335,22.4026359 338.402636,19 342.6,19 Z M353.333333,57 L360,57 L360,40.9979802 L363.333333,40.9979802 L365,34.6000001 L360,34.6000001 L360,33 C360,31.5619793 359.793551,30.5157788 361.666667,30.5157788 L365,30.5157788 L365,25 L361.701551,25 C355.776829,25 353.333333,26.9021459 353.333333,31.4 L353.333333,34.6000001 L350,34.6000001 L350,40.9979802 L353.333333,41.0000001 L353.333333,57 Z" transform="translate(-331 -15)"/>
</svg>
