<svg xmlns="http://www.w3.org/2000/svg" width="36" height="45" viewBox="0 0 36 45">
  <g fill="none" fill-rule="evenodd">
    <polygon fill="#FFBE00" points="9 9 27 9 27 45 18 39.653 9 45"/>
    <circle cx="18" cy="18" r="18" fill="#E78A07"/>
    <path fill="#945B0A" fill-rule="nonzero" d="M17.4303594,28.2460938 C19.362651,28.2460938 20.9212448,27.7242839 22.1061406,26.6806641 C23.2910365,25.6370443 23.8834844,24.2675781 23.8834844,22.5722656 C23.8834844,21.4329427 23.6237188,20.4508464 23.1041875,19.6259766 C22.5846563,18.8011068 21.814474,18.2063802 20.7936406,17.8417969 C22.5709844,16.8847656 23.4596563,15.4264323 23.4596563,13.4667969 C23.4596563,12.0175781 22.9173385,10.8531901 21.8327031,9.97363281 C20.7480677,9.09407552 19.3216354,8.65429688 17.5534063,8.65429688 C16.0586146,8.65429688 14.7142135,8.93229167 13.5202031,9.48828125 L13.5202031,9.48828125 L13.5202031,12.4824219 C14.705099,11.9082031 15.8353073,11.6210938 16.9108281,11.6210938 C17.7767135,11.6210938 18.487651,11.851237 19.0436406,12.3115234 C19.5996302,12.7718099 19.877625,13.3802083 19.877625,14.1367188 C19.877625,14.9023438 19.5905156,15.5107422 19.0162969,15.9619141 C18.4420781,16.4130859 17.6445521,16.6386719 16.6237188,16.6386719 L16.6237188,16.6386719 L16.4596563,16.6386719 L16.4596563,19.6054688 L16.6784063,19.6054688 C17.7721563,19.6054688 18.6334844,19.8720703 19.2623906,20.4052734 C19.8912969,20.9384766 20.20575,21.6516927 20.20575,22.5449219 C20.20575,23.3561198 19.9209193,24.0146484 19.3512578,24.5205078 C18.7815964,25.0263672 18.050151,25.2792969 17.1569219,25.2792969 C16.4824427,25.2792969 15.8216354,25.1630859 15.1745,24.9306641 C14.5273646,24.6982422 13.8164271,24.3222656 13.0416875,23.8027344 L13.0416875,23.8027344 L13.0416875,27.1660156 C14.4453333,27.8860677 15.908224,28.2460938 17.4303594,28.2460938 Z"/>
  </g>
</svg>
