<svg xmlns="http://www.w3.org/2000/svg" width="36" height="45" viewBox="0 0 36 45">
  <g fill="none" fill-rule="evenodd">
    <polygon fill="#0097FF" points="9 9 27 9 27 45 18 39.653 9 45"/>
    <circle cx="18" cy="18" r="18" fill="#DDE1E1"/>
    <path fill="#9BA3AF" fill-rule="nonzero" d="M24.8541875,27 L24.8541875,23.6914062 L18.3053594,23.6914062 C20.3105677,21.1666667 21.7119349,19.1386719 22.5094609,17.6074219 C23.306987,16.0761719 23.70575,14.6542969 23.70575,13.3417969 C23.70575,11.6191406 23.1702682,10.2405599 22.0993047,9.20605469 C21.0283411,8.17154948 19.5859583,7.65429688 17.7721563,7.65429688 C16.0768438,7.65429688 14.4134323,8.26041667 12.7819219,9.47265625 L12.7819219,9.47265625 L12.7819219,13.21875 C14.331401,11.578125 15.8261927,10.7578125 17.2662969,10.7578125 C18.0683802,10.7578125 18.7496953,11.0563151 19.3102422,11.6533203 C19.8707891,12.2503255 20.1510625,12.9863281 20.1510625,13.8613281 C20.1510625,14.563151 20.0325729,15.2421875 19.7955938,15.8984375 C19.5586146,16.5546875 19.1575729,17.3499349 18.5924688,18.2841797 C18.0273646,19.2184245 17.2275599,20.3942057 16.1930547,21.8115234 C15.1585495,23.2288411 13.9212448,24.8261719 12.4811406,26.6035156 L12.4811406,26.6035156 L12.4811406,27 L24.8541875,27 Z"/>
  </g>
</svg>
