<svg xmlns="http://www.w3.org/2000/svg" width="50" height="50" viewBox="0 0 50 50">
  <path fill="#FFF" fill-rule="evenodd" d="M198.522973,35.4998759 C198.402629,33.3998759 198.041597,31.3798759 197.50005,29.4398759 C198.904061,28.8998759 200.267958,28.2598759 201.571683,27.4998759 C203.136153,29.8398759 204.179133,32.5598759 204.50005,35.4998759 L198.522973,35.4998759 Z M201.571683,48.4998759 C200.267958,47.7398759 198.904061,47.0998759 197.50005,46.5598759 C198.041597,44.6198759 198.402629,42.5798759 198.522973,40.4998759 L204.50005,40.4998759 C204.179133,43.4398759 203.136153,46.1598759 201.571683,48.4998759 L201.571683,48.4998759 Z M193.50005,55.4998759 C194.62787,53.9242456 195.597794,52.2645818 196.409824,50.4998759 C197.469975,50.8990356 198.507569,51.340212 199.50005,51.8444137 C197.763208,53.3780272 195.733133,54.617523 193.50005,55.4998759 L193.50005,55.4998759 Z M188.50005,55.4998759 L188.50005,48.4998759 C189.854889,48.5860297 191.209727,48.7798759 192.50005,49.0814144 C191.467792,51.4075682 190.112953,53.5614144 188.50005,55.4998759 L188.50005,55.4998759 Z M188.50005,40.4998759 L194.50005,40.4998759 C194.378428,42.2147519 194.094645,43.8883056 193.648699,45.4998759 C191.986536,45.0866528 190.263564,44.8180577 188.50005,44.7147519 L188.50005,40.4998759 Z M188.50005,31.2849999 C190.263564,31.1816941 191.986536,30.913099 193.648699,30.4998759 C194.094645,32.1114461 194.378428,33.7849999 194.50005,35.4998759 L188.50005,35.4998759 L188.50005,31.2849999 Z M188.50005,20.4998759 C190.112953,22.4323912 191.467792,24.5796305 192.50005,26.8986489 C191.209727,27.1992624 189.854889,27.3925139 188.50005,27.4998759 L188.50005,20.4998759 Z M199.50005,24.1553381 C198.503824,24.6595398 197.462314,25.1007162 196.398163,25.4998759 C195.583069,23.73517 194.609484,22.0755061 193.50005,20.4998759 C195.741559,21.3822288 197.756654,22.6217246 199.50005,24.1553381 L199.50005,24.1553381 Z M183.50005,27.4998759 C182.145211,27.3925139 180.790373,27.1992624 179.50005,26.8986489 C180.532308,24.5796305 181.887147,22.4323912 183.50005,20.4998759 L183.50005,27.4998759 Z M183.50005,35.4998759 L177.50005,35.4998759 C177.601745,33.7849999 177.886491,32.1114461 178.333948,30.4998759 C180.001745,30.913099 181.730558,31.1816941 183.50005,31.2849999 L183.50005,35.4998759 Z M183.50005,44.7147519 C181.730558,44.8180577 180.001745,45.0866528 178.333948,45.4998759 C177.886491,43.8883056 177.601745,42.2147519 177.50005,40.4998759 L183.50005,40.4998759 L183.50005,44.7147519 Z M183.50005,55.4998759 C181.887147,53.5614144 180.532308,51.4075682 179.50005,49.0814144 C180.790373,48.7798759 182.145211,48.5860297 183.50005,48.4998759 L183.50005,55.4998759 Z M172.50005,51.8444137 C173.492531,51.340212 174.530125,50.8990356 175.590276,50.4998759 C176.402306,52.2645818 177.37223,53.9242456 178.50005,55.4998759 C176.266967,54.617523 174.236892,53.3780272 172.50005,51.8444137 L172.50005,51.8444137 Z M167.50005,40.4998759 L173.477127,40.4998759 C173.597471,42.5798759 173.958503,44.6198759 174.50005,46.5598759 C173.096039,47.0998759 171.732142,47.7398759 170.428417,48.4998759 C168.863947,46.1598759 167.820967,43.4398759 167.50005,40.4998759 L167.50005,40.4998759 Z M170.428417,27.4998759 C171.732142,28.2598759 173.096039,28.8998759 174.50005,29.4398759 C173.958503,31.3798759 173.597471,33.3998759 173.477127,35.4998759 L167.50005,35.4998759 C167.820967,32.5598759 168.863947,29.8398759 170.428417,27.4998759 L170.428417,27.4998759 Z M178.50005,20.4998759 C177.390616,22.0755061 176.417031,23.73517 175.601937,25.4998759 C174.537786,25.1007162 173.496276,24.6595398 172.50005,24.1553381 C174.243446,22.6217246 176.258541,21.3822288 178.50005,20.4998759 L178.50005,20.4998759 Z M204.610959,25.7244213 C203.858232,24.5535123 202.959141,23.4662395 201.976414,22.4626032 C198.651868,19.0335123 194.260959,16.6289668 189.326414,15.8344213 C188.95005,15.750785 188.573686,15.7089668 188.197323,15.6671486 C187.298232,15.5626032 186.42005,15.4998759 185.50005,15.4998759 C184.58005,15.4998759 183.680959,15.5626032 182.802777,15.6671486 C182.426414,15.7089668 182.029141,15.750785 181.673686,15.8344213 C176.739141,16.6498759 172.348232,19.0335123 169.023686,22.4626032 C168.040959,23.4662395 167.141868,24.5535123 166.389141,25.7244213 C163.921868,29.3835123 162.50005,33.7744213 162.50005,38.4998759 C162.50005,43.2253304 163.921868,47.6162395 166.368232,51.2753304 C167.141868,52.4441486 168.040959,53.5335123 169.023686,54.5350577 C172.348232,57.9662395 176.739141,60.3498759 181.673686,61.1653304 C182.05005,61.2489668 182.426414,61.290785 182.823686,61.3305123 C183.701868,61.4371486 184.600959,61.4998759 185.50005,61.4998759 C186.399141,61.4998759 187.298232,61.4580577 188.176414,61.3305123 C188.552777,61.3116941 188.95005,61.2489668 189.326414,61.1653304 C194.260959,60.3498759 198.651868,57.9662395 201.976414,54.5350577 C202.959141,53.5335123 203.858232,52.4441486 204.631868,51.2753304 C207.078232,47.6162395 208.50005,43.2253304 208.50005,38.4998759 C208.50005,33.7744213 207.078232,29.3835123 204.610959,25.7244213 L204.610959,25.7244213 Z" transform="translate(-161 -13)"/>
</svg>
